# xmcd CD database file
#
# Track frame offsets:
#	150
#	14060
#	44322
#	57162
#	79892
#	109720
#	125412
#	143955
#	165565
#	186285
#	201842
#	213210
#	227957
#	242385
#	268782
#
# Disc length: 3938 seconds
#
# Revision: 0
# Processed by: cddbd v1.4PL0 Copyright (c) Steve Scherf et al.
# Submitted via: CDex 1.50beta10
#
DISCID=d50f600f
DTITLE=Steven Halpern - Sound Chi
DYEAR=1900
DGENRE=New Age
TTITLE0=Creation: The Awakening
TTITLE1=Creation: Natural Light
TTITLE2=Creation: Inner Vision
TTITLE3=Creation: Soar to New Heights
TTITLE4=Expansion: Inner Fire
TTITLE5=Expansion: Succulent Rejoice
TTITLE6=Expansion: Joyful Abundance
TTITLE7=Introspection: Heart Wisdom
TTITLE8=Introspection: Enhanced Mediation
TTITLE9=Introspection: Crystal Clarity
TTITLE10=Introspection: Inner Light
TTITLE11=Regeneration: Moment's Pause
TTITLE12=Regeneration: Coming Home
TTITLE13=Regeneration: Nuture the Soul
TTITLE14=Regeneration: Dream Time
EXTD=
EXTT0=
EXTT1=
EXTT2=
EXTT3=
EXTT4=
EXTT5=
EXTT6=
EXTT7=
EXTT8=
EXTT9=
EXTT10=
EXTT11=
EXTT12=
EXTT13=
EXTT14=
PLAYORDER=
